<?xml version="1.0" encoding="UTF-8" standalone="no"?>
<!DOCTYPE svg PUBLIC "-//W3C//DTD SVG 1.1//EN"
 "http://www.w3.org/Graphics/SVG/1.1/DTD/svg11.dtd">
<!-- Generated by graphviz version 12.1.2 (20240928.0832)
 -->
<!-- Title: burnnote Pages: 1 -->
<svg width="308pt" height="167pt"
 viewBox="0.00 0.00 307.54 166.80" xmlns="http://www.w3.org/2000/svg" xmlns:xlink="http://www.w3.org/1999/xlink">
<g id="graph0" class="graph" transform="scale(1 1) rotate(0) translate(4 162.8)">
<title>burnnote</title>
<polygon fill="white" stroke="none" points="-4,4 -4,-162.8 303.54,-162.8 303.54,4 -4,4"/>
<!-- burnnote -->
<g id="node1" class="node">
<title>burnnote</title>
<polygon fill="#efefef" stroke="none" points="46.2,-77 46.2,-112.6 253.34,-112.6 253.34,-77 46.2,-77"/>
<polygon fill="none" stroke="black" points="46.2,-77 46.2,-112.6 253.34,-112.6 253.34,-77 46.2,-77"/>
<text text-anchor="start" x="53.2" y="-90.4" font-family="Arial Bold" font-size="18.00">burnnote</text>
<text text-anchor="start" x="117.18" y="-90.4" font-family="Arial" font-size="14.00">    </text>
<text text-anchor="start" x="148.3" y="-90.4" font-family="Arial" font-size="14.00" fill="#666666">[BASIC TABLE]</text>
<polygon fill="none" stroke="black" points="46.2,-46.2 46.2,-77 253.34,-77 253.34,-46.2 46.2,-46.2"/>
<text text-anchor="start" x="53.2" y="-58.4" font-family="Arial" font-size="14.00">id </text>
<text text-anchor="start" x="67.99" y="-58.4" font-family="Arial" font-size="14.00" fill="#666666">[S]</text>
<polygon fill="none" stroke="black" stroke-width="3" points="44.7,-44.7 44.7,-114.1 254.84,-114.1 254.84,-44.7 44.7,-44.7"/>
</g>
</g>
</svg>
